<svg width="789" height="699" viewBox="0 0 789 699" fill="none" xmlns="http://www.w3.org/2000/svg">
<g opacity="0.34">
<path opacity="0.34" d="M271.52 439.867L381.81 393.326C388.945 390.362 396.974 390.414 404.142 393.469C411.309 396.525 417.03 402.335 420.053 409.629L421.25 412.547C427.475 427.719 420.416 445.329 405.569 451.665L295.29 498.196C288.156 501.159 280.126 501.108 272.958 498.053C265.791 494.997 260.07 489.187 257.047 481.893L255.844 478.972C249.661 463.693 256.728 446.065 271.52 439.867Z" fill="white"/>
<path opacity="0.34" d="M175.718 392.172L175.471 426.116C176.202 432.411 178.627 438.398 182.479 443.411L206.361 467.155C213.587 476.407 214.272 489.806 207.349 499.358C204.565 503.186 200.81 506.165 196.48 507.98L188.408 511.468C186.271 512.452 183.981 513.056 181.636 513.257C167.413 515.029 154.681 503.88 153.157 489.188L153.893 455.908C153.406 450.896 151.505 446.119 148.421 442.154L122.131 414.526C115.864 406.126 114.511 394.702 119.519 385.541C122.335 380.334 126.834 376.293 132.261 374.096L140.333 370.607C144.61 368.778 149.309 368.177 153.925 368.868C165.634 370.398 174.408 380.317 175.718 392.172Z" fill="white"/>
<path opacity="0.34" d="M142.835 149.894L188.057 37.2438C189.522 33.6169 191.677 30.3275 194.401 27.5634C197.124 24.7994 200.363 22.6148 203.931 21.1344C207.499 19.654 211.327 18.9068 215.196 18.9354C219.065 18.9641 222.9 19.768 226.482 21.3013L229.066 22.4015C232.653 23.9198 235.92 26.139 238.68 28.9321C241.439 31.7253 243.637 35.0378 245.149 38.6805C246.66 42.3232 247.455 46.2248 247.489 50.1625C247.522 54.1002 246.793 57.9968 245.343 61.63L200.121 174.28C198.657 177.907 196.501 181.196 193.778 183.959C191.054 186.723 187.816 188.907 184.248 190.387C180.68 191.867 176.852 192.614 172.983 192.584C169.115 192.555 165.28 191.75 161.699 190.216L159.115 189.116C151.871 186.05 146.086 180.196 143.034 172.84C139.981 165.485 139.909 157.231 142.835 149.894Z" fill="white"/>
<path opacity="0.34" d="M195.2 283.365L228.339 283.927C234.511 283.233 240.339 280.754 245.138 276.781L268.193 252.559C277.254 245.118 290.262 244.492 299.509 251.748C303.255 254.617 306.174 258.466 307.95 262.879L311.271 271.239C312.161 273.471 312.769 275.807 313.081 278.189C314.916 292.83 303.944 305.782 289.71 307.255L257.215 306.208C252.334 306.656 247.703 308.546 243.89 311.647L217.106 338.521C209.02 345.015 197.709 346.225 188.856 340.941C183.779 337.936 179.793 333.326 177.509 327.82L174.183 319.472C172.359 315.034 171.739 310.19 172.389 305.453C174.038 293.623 183.59 284.557 195.2 283.365Z" fill="white"/>
<path opacity="0.34" d="M429.118 252.486C438.348 229.461 427.631 203.037 405.181 193.467C382.731 183.896 357.049 194.803 347.818 217.828C338.588 240.854 349.306 267.277 371.756 276.848C394.206 286.418 419.888 275.511 429.118 252.486Z" fill="white"/>
<path opacity="0.34" d="M141.622 327.602C150.852 304.577 140.135 278.154 117.685 268.583C95.2344 259.013 69.5524 269.92 60.3224 292.945C51.0923 315.97 61.8094 342.394 84.2597 351.964C106.71 361.535 132.392 350.627 141.622 327.602Z" fill="white"/>
<path opacity="0.34" d="M513.051 489.499L559.974 602.473C562.962 609.783 563.004 617.967 560.089 625.238C557.175 632.509 551.541 638.274 544.419 641.274L541.567 642.466C526.74 648.663 509.377 641.262 503.015 626.032L456.105 513.064C453.113 505.754 453.069 497.568 455.984 490.297C458.899 483.025 464.535 477.26 471.66 474.263L474.512 473.071C489.428 466.941 506.803 474.348 513.051 489.499Z" fill="white"/>
<path opacity="0.34" d="M511.712 332.562L478.415 331.909C472.246 332.582 466.401 334.987 461.529 338.856L438.517 362.918C429.509 370.211 416.375 370.753 406.946 363.538C403.156 360.654 400.19 356.789 398.36 352.353L394.842 344.086C393.858 341.888 393.245 339.54 393.029 337.143C391.105 322.671 401.897 309.842 416.26 308.424L448.916 309.555C453.833 309.127 458.505 307.251 462.364 304.154L489.164 277.672C497.33 271.374 508.524 270.13 517.566 275.34C522.709 278.269 526.725 282.901 528.941 288.458L532.451 296.728C534.297 301.111 534.941 305.91 534.315 310.608C532.96 322.519 523.334 331.353 511.712 332.562Z" fill="white"/>
<path opacity="0.34" d="M650.752 411.503L650.565 445.295C651.32 451.596 653.819 457.568 657.771 462.511L681.792 486.285C689.191 495.609 689.946 508.905 682.946 518.218C680.175 522.004 676.434 524.935 672.126 526.697L663.974 529.989C661.796 530.873 659.513 531.468 657.18 531.761C642.839 533.467 630.009 522.13 628.384 507.601L629.035 474.479C628.541 469.496 626.63 464.753 623.536 460.832L596.892 433.223C590.433 424.903 589.119 413.364 594.196 404.395C597.085 399.255 601.562 395.244 606.94 392.981L615.088 389.68C619.422 387.876 624.167 387.301 628.823 388.017C640.44 389.811 649.412 399.651 650.752 411.503Z" fill="white"/>
<path opacity="0.34" d="M666.113 332.108C675.244 309.331 664.253 283.026 641.564 273.354C618.876 263.682 593.082 274.306 583.951 297.083C574.821 319.86 585.811 346.164 608.5 355.836C631.188 365.508 656.983 354.884 666.113 332.108Z" fill="white"/>
</g>
</svg>
