<svg width="32" height="32" viewBox="0 0 32 32" fill="none" xmlns="http://www.w3.org/2000/svg">
<rect width="32" height="32" rx="4" fill="#A663F6"/>
<path d="M10.632 14.656L10.616 17.856C10.616 18.3253 10.6853 18.6773 10.824 18.912C10.9733 19.136 11.2773 19.248 11.736 19.248H15.784C16.2747 19.2587 16.52 19.632 16.52 20.368C16.52 20.9333 16.4507 21.344 16.312 21.6C16.1733 21.856 15.8907 21.9893 15.464 22C13.96 22.0427 12.472 22.064 11 22.064C9.528 22.064 7.65067 22.0533 5.368 22.032C4.984 22.032 4.66933 21.9413 4.424 21.76C4.18933 21.568 4.056 21.3067 4.024 20.976C3.93867 20.048 3.896 18.5867 3.896 16.592C3.896 14.5867 3.91733 13.2373 3.96 12.544C4.01333 11.84 4.11467 11.376 4.264 11.152C4.41333 10.9173 4.70667 10.8 5.144 10.8H9.432C9.88 10.8 10.1733 10.9173 10.312 11.152C10.4613 11.3867 10.552 11.7653 10.584 12.288C10.616 12.8107 10.632 13.6 10.632 14.656ZM26.1584 21.024C26.1477 21.2587 26.0464 21.4773 25.8544 21.68C25.6624 21.872 25.4064 21.9787 25.0864 22C24.4784 22.0427 23.7477 22.064 22.8944 22.064C22.041 22.064 21.257 22.0427 20.5424 22C20.2224 21.9787 19.9664 21.872 19.7744 21.68C19.5824 21.4773 19.481 21.2587 19.4704 21.024C19.4384 19.4027 19.4224 18.0213 19.4224 16.88C19.4224 15.728 19.4277 14.8853 19.4384 14.352C19.4384 13.9467 19.257 13.744 18.8944 13.744H17.4544C17.2304 13.744 17.049 13.6907 16.9104 13.584C16.7717 13.4773 16.6917 13.2907 16.6704 13.024C16.6597 12.7573 16.6544 12.48 16.6544 12.192C16.6544 11.904 16.6597 11.6587 16.6704 11.456C16.6917 11.2427 16.777 11.0827 16.9264 10.976C17.0864 10.8587 17.257 10.8 17.4384 10.8C18.825 10.7787 20.7024 10.768 23.0704 10.768C25.4384 10.768 27.1344 10.7787 28.1584 10.8C28.3397 10.8107 28.505 10.8693 28.6544 10.976C28.8144 11.0827 28.8997 11.2427 28.9104 11.456C28.9317 11.6587 28.9424 11.8987 28.9424 12.176C28.9424 12.4533 28.937 12.72 28.9264 12.976C28.8944 13.456 28.633 13.696 28.1424 13.696H26.7024C26.3397 13.696 26.1584 13.8827 26.1584 14.256C26.1904 15.6 26.2064 16.816 26.2064 17.904C26.2064 18.992 26.1904 20.032 26.1584 21.024Z" fill="white"/>
</svg>
