<svg width="109" height="109" viewBox="0 0 109 109" fill="none" xmlns="http://www.w3.org/2000/svg">
<circle cx="54.5" cy="54.5" r="54.5" fill="white"/>
<path d="M56.1665 34.5C45.3982 34.5 36.6665 43.2317 36.6665 54H30.1665L38.5948 62.4283L38.7465 62.7317L47.4998 54H40.9998C40.9998 45.615 47.7815 38.8333 56.1665 38.8333C64.5515 38.8333 71.3332 45.615 71.3332 54C71.3332 62.385 64.5515 69.1667 56.1665 69.1667C51.9848 69.1667 48.1932 67.455 45.4632 64.7033L42.3865 67.78C45.9182 71.3117 50.7715 73.5 56.1665 73.5C66.9348 73.5 75.6665 64.7683 75.6665 54C75.6665 43.2317 66.9348 34.5 56.1665 34.5ZM53.9998 45.3333V56.1667L63.2732 61.67L64.8332 59.0483L57.2498 54.5417V45.3333H53.9998Z" fill="#005A62"/>
</svg>
