<svg width="109" height="109" viewBox="0 0 109 109" fill="none" xmlns="http://www.w3.org/2000/svg">
<circle cx="54.5" cy="54.5" r="54.5" fill="white"/>
<path d="M63.7062 33.46C70.7912 36.8183 75.8612 43.6867 76.6412 51.8333H79.8912C78.7862 38.4867 67.6279 28 53.9996 28L52.5696 28.065L60.8246 36.32L63.7062 33.46ZM50.1646 31.7917C48.8862 30.5133 46.8279 30.5133 45.5712 31.7917L31.7912 45.5717C30.5129 46.85 30.5129 48.9083 31.7912 50.165L57.8346 76.2083C59.1129 77.4867 61.1712 77.4867 62.4279 76.2083L76.2079 62.4283C77.4862 61.15 77.4862 59.0917 76.2079 57.835L50.1646 31.7917ZM60.1312 73.9117L34.0879 47.8683L47.8679 34.0883L73.9112 60.1317L60.1312 73.9117ZM44.2929 74.54C37.2079 71.2033 32.1379 64.3133 31.3579 56.1667H28.1079C29.2129 69.5133 40.3712 80 53.9996 80L55.4296 79.935L47.1746 71.68L44.2929 74.54Z" fill="#005A62"/>
</svg>
