<svg width="109" height="109" viewBox="0 0 109 109" fill="none" xmlns="http://www.w3.org/2000/svg">
<circle cx="54.5" cy="54.5" r="54.5" fill="white"/>
<path d="M68 36.5H40C38.075 36.5 36.5 38.075 36.5 40V68C36.5 69.925 38.075 71.5 40 71.5H68C69.925 71.5 71.5 69.925 71.5 68V40C71.5 38.075 69.925 36.5 68 36.5ZM47 68H40V61H47V68ZM47 57.5H40V50.5H47V57.5ZM47 47H40V40H47V47ZM57.5 68H50.5V61H57.5V68ZM57.5 57.5H50.5V50.5H57.5V57.5ZM57.5 47H50.5V40H57.5V47ZM68 68H61V61H68V68ZM68 57.5H61V50.5H68V57.5ZM68 47H61V40H68V47Z" fill="#005A62"/>
</svg>
