<svg width="285" height="84" viewBox="0 0 285 84" fill="none" xmlns="http://www.w3.org/2000/svg">
<path fill-rule="evenodd" clip-rule="evenodd" d="M274.441 84H10.5594C4.73969 84 0 79.2658 0 73.5V10.5C0 4.71322 4.73969 0 10.5594 0H274.441C280.255 0 285 4.71322 285 10.5V73.5C285 79.2658 280.255 84 274.441 84Z" fill="black"/>
<path fill-rule="evenodd" clip-rule="evenodd" d="M274.441 1.68105C279.322 1.68105 283.317 5.64539 283.317 10.5V73.5C283.317 78.3546 279.348 82.319 274.441 82.319H10.5594C5.67819 82.319 1.68301 78.3546 1.68301 73.5V10.5C1.68301 5.64539 5.65197 1.68105 10.5594 1.68105H274.441ZM274.441 0H10.5594C4.73969 0 0 4.73416 0 10.5V73.5C0 79.2868 4.73969 84 10.5594 84H274.441C280.255 84 285 79.2868 285 73.5V10.5C285 4.73416 280.255 0 274.441 0Z" fill="#A6A6A6"/>
<path d="M150.139 27.7868C148.236 27.7868 146.631 27.1217 145.362 25.8125C144.104 24.5399 143.402 22.7856 143.433 20.9946C143.433 19.0831 144.083 17.4649 145.362 16.1818C146.626 14.8726 148.23 14.2075 150.134 14.2075C152.016 14.2075 153.62 14.8726 154.91 16.1818C156.189 17.5068 156.839 19.125 156.839 20.9946C156.818 22.9113 156.168 24.5295 154.91 25.8073C153.646 27.127 152.042 27.7868 150.139 27.7868ZM93.5093 27.7868C91.648 27.7868 90.0332 27.1322 88.712 25.8387C87.4012 24.5504 86.7354 22.9217 86.7354 20.9998C86.7354 19.0778 87.4012 17.4492 88.712 16.1609C90.007 14.8674 91.6218 14.2128 93.5093 14.2128C94.4321 14.2128 95.3286 14.396 96.1885 14.7679C97.0326 15.1292 97.7194 15.6215 98.228 16.2237L98.3538 16.3756L96.933 17.7686L96.7862 17.5958C95.984 16.6427 94.9092 16.1766 93.4883 16.1766C92.2195 16.1766 91.1132 16.627 90.201 17.5172C89.2834 18.4128 88.8168 19.5858 88.8168 21.005C88.8168 22.4242 89.2834 23.5973 90.201 24.4928C91.1132 25.3831 92.2195 25.8335 93.4883 25.8335C94.841 25.8335 95.9787 25.3831 96.8648 24.4928C97.3891 23.9691 97.7142 23.2359 97.8295 22.309H93.2734V20.3504H99.7851L99.8114 20.5285C99.8585 20.8584 99.9057 21.1988 99.9057 21.513C99.9057 23.3197 99.3605 24.7808 98.2804 25.8596C97.0535 27.1374 95.4492 27.7868 93.5093 27.7868ZM168.804 27.5093H166.796L160.646 17.6796L160.698 19.4497V27.504H158.69V14.4903H160.981L161.044 14.5898L166.827 23.8487L166.775 22.0838V14.4903H168.804V27.5093ZM135.049 27.5093H133.015V16.4489H129.487V14.4903H138.573V16.4489H135.044V27.5093H135.049ZM127.83 27.5093H125.801V14.4903H127.83V27.5093ZM116.426 27.5093H114.397V16.4489H110.869V14.4903H119.955V16.4489H116.426V27.5093ZM109.584 27.4883H101.804V14.4903H109.584V16.4489H103.838V20.0205H109.023V21.9581H103.838V25.5297H109.584V27.4883ZM146.851 24.4666C147.758 25.3726 148.86 25.8282 150.139 25.8282C151.455 25.8282 152.53 25.3831 153.426 24.4666C154.317 23.5763 154.768 22.4085 154.768 20.9998C154.768 19.5911 154.317 18.418 153.431 17.533C152.524 16.627 151.418 16.1714 150.144 16.1714C148.828 16.1714 147.753 16.6165 146.862 17.533C145.971 18.4232 145.52 19.5911 145.52 20.9998C145.52 22.4085 145.965 23.5816 146.851 24.4666Z" fill="white"/>
<path fill-rule="evenodd" clip-rule="evenodd" d="M143.245 45.6868C138.29 45.6868 134.274 49.4416 134.274 54.6209C134.274 59.7531 138.316 63.5551 143.245 63.5551C148.199 63.5551 152.216 59.774 152.216 54.6209C152.216 49.4416 148.199 45.6868 143.245 45.6868ZM143.245 60.0149C140.534 60.0149 138.201 57.7735 138.201 54.6C138.201 51.3793 140.539 49.185 143.245 49.185C145.955 49.185 148.288 51.3793 148.288 54.6C148.294 57.7945 145.955 60.0149 143.245 60.0149ZM123.672 45.6868C118.718 45.6868 114.702 49.4416 114.702 54.6209C114.702 59.7531 118.744 63.5551 123.672 63.5551C128.627 63.5551 132.643 59.774 132.643 54.6209C132.643 49.4416 128.622 45.6868 123.672 45.6868ZM123.672 60.0149C120.962 60.0149 118.629 57.7735 118.629 54.6C118.629 51.3793 120.967 49.185 123.672 49.185C126.383 49.185 128.716 51.3793 128.716 54.6C128.716 57.7945 126.383 60.0149 123.672 60.0149ZM100.383 48.4152V52.1962H109.469C109.191 54.3172 108.489 55.883 107.414 56.9566C106.082 58.2868 104.027 59.7321 100.404 59.7321C94.8201 59.7321 90.4527 55.2284 90.4527 49.6511C90.4527 44.0738 94.8201 39.5701 100.404 39.5701C103.419 39.5701 105.616 40.7588 107.246 42.2775L109.931 39.5962C107.666 37.4282 104.651 35.7681 100.425 35.7681C92.7649 35.7681 86.3369 42 86.3369 49.6302C86.3369 57.2813 92.7596 63.4922 100.425 63.4922C104.562 63.4922 107.666 62.1411 110.119 59.596C112.62 57.098 113.412 53.5735 113.412 50.7299C113.412 49.8449 113.344 49.0489 113.202 48.3733H100.378C100.383 48.3681 100.383 48.4152 100.383 48.4152ZM195.643 51.3583C194.894 49.3526 192.629 45.6658 187.983 45.6658C183.38 45.6658 179.553 49.2845 179.553 54.6C179.553 59.6169 183.338 63.5341 188.429 63.5341C192.519 63.5341 194.899 61.0361 195.879 59.5698L192.844 57.5379C191.837 59.0304 190.437 60.0097 188.45 60.0097C186.442 60.0097 185.037 59.0985 184.104 57.3022L196.063 52.3533C196.063 52.3586 195.643 51.3583 195.643 51.3583ZM183.448 54.3434C183.354 50.8922 186.133 49.1379 188.12 49.1379C189.687 49.1379 190.993 49.9077 191.439 51.0284L183.448 54.3434ZM173.733 63H177.66V36.7526H173.733V63ZM167.284 47.6716H167.142C166.256 46.6189 164.573 45.6658 162.424 45.6658C157.962 45.6658 153.851 49.5883 153.851 54.6262C153.851 59.6431 157.941 63.5184 162.424 63.5184C164.547 63.5184 166.256 62.5601 167.142 61.4865H167.284V62.7696C167.284 66.1788 165.459 68.0169 162.518 68.0169C160.112 68.0169 158.617 66.2888 158.009 64.8434L154.596 66.2678C155.576 68.6244 158.193 71.5414 162.513 71.5414C167.116 71.5414 171.017 68.8339 171.017 62.2302V46.2H167.305V47.6716C167.31 47.6716 167.284 47.6716 167.284 47.6716ZM162.775 60.0149C160.064 60.0149 157.799 57.7526 157.799 54.6262C157.799 51.4735 160.064 49.1903 162.775 49.1903C165.459 49.1903 167.541 51.4997 167.541 54.6262C167.567 57.7526 165.465 60.0149 162.775 60.0149ZM214.031 36.7526H204.641V63H208.568V53.0603H214.036C218.382 53.0603 222.656 49.913 222.656 44.9169C222.656 39.9209 218.398 36.7526 214.031 36.7526ZM214.146 49.3945H208.562V40.387H214.146C217.087 40.387 218.75 42.8117 218.75 44.8908C218.75 46.9489 217.066 49.3945 214.146 49.3945ZM238.395 45.6396C235.543 45.6396 232.602 46.9017 231.385 49.6511L234.867 51.0965C235.616 49.6511 236.99 49.1588 238.442 49.1588C240.477 49.1588 242.532 50.3738 242.579 52.5419V52.8194C241.876 52.4214 240.335 51.8139 238.49 51.8139C234.73 51.8139 230.919 53.8668 230.919 57.7159C230.919 61.2404 234.001 63.5027 237.436 63.5027C240.073 63.5027 241.525 62.3139 242.432 60.9366H242.574V62.9686H246.359V52.9137C246.359 48.2319 242.878 45.6396 238.395 45.6396ZM237.902 60.0149C236.618 60.0149 234.819 59.3865 234.819 57.7735C234.819 55.7416 237.063 54.9718 238.977 54.9718C240.707 54.9718 241.525 55.3436 242.553 55.8568C242.27 58.2134 240.277 59.994 237.902 60.0149ZM260.169 46.2L255.66 57.585H255.519L250.847 46.2H246.621L253.631 62.1149L249.636 70.9601H253.726L264.511 46.2H260.169ZM224.821 63H228.748V36.7526H224.821V63Z" fill="white"/>
<path fill-rule="evenodd" clip-rule="evenodd" d="M21.9365 15.8206C21.3283 16.4752 20.9771 17.4755 20.9771 18.7847V65.2203C20.9771 66.5296 21.3283 67.5298 21.9575 68.1583L22.12 68.2996L48.1673 42.2827V41.7014L22.0991 15.6792L21.9365 15.8206Z" fill="url(#paint0_linear)"/>
<path fill-rule="evenodd" clip-rule="evenodd" d="M56.8342 50.9811L48.1465 42.3036V41.6961L56.8342 33.0186L57.023 33.1338L67.2993 38.9677C70.2407 40.6225 70.2407 43.3562 67.2993 45.032L57.023 50.8659L56.8342 50.9811Z" fill="url(#paint1_linear)"/>
<path fill-rule="evenodd" clip-rule="evenodd" d="M57.0228 50.8661L48.1464 42L21.9365 68.1793C22.896 69.2057 24.5056 69.3209 26.304 68.3207L57.0228 50.8661Z" fill="url(#paint2_linear)"/>
<path fill-rule="evenodd" clip-rule="evenodd" d="M57.0228 33.1336L26.304 15.7052C24.5056 14.6788 22.8908 14.8202 21.9365 15.8466L48.1464 41.9997L57.0228 33.1336Z" fill="url(#paint3_linear)"/>
<path opacity="0.2" fill-rule="evenodd" clip-rule="evenodd" d="M56.8343 50.6777L26.325 67.9909C24.621 68.9702 23.1005 68.9021 22.1201 68.0118L21.9575 68.1742L22.1201 68.3156C23.1005 69.2006 24.621 69.2739 26.325 68.2946L57.044 50.8663L56.8343 50.6777Z" fill="black"/>
<path opacity="0.12" fill-rule="evenodd" clip-rule="evenodd" d="M67.2994 44.7284L56.8081 50.6776L56.9969 50.8661L67.2732 45.0322C68.7465 44.1943 69.47 43.0945 69.47 42C69.3809 43.0055 68.6311 43.9586 67.2994 44.7284Z" fill="black"/>
<path opacity="0.25" fill-rule="evenodd" clip-rule="evenodd" d="M26.304 16.0093L67.2991 39.2717C68.6308 40.0205 69.3806 40.9998 69.4959 42.0001C69.4959 40.9056 68.7724 39.8058 67.2991 38.9679L26.304 15.7056C23.3626 14.0245 20.9771 15.428 20.9771 18.7849V19.0886C20.9771 15.7265 23.3626 14.3492 26.304 16.0093Z" fill="white"/>
<defs>
<linearGradient id="paint0_linear" x1="45.8309" y1="18.2837" x2="4.1141" y2="29.4122" gradientUnits="userSpaceOnUse">
<stop stop-color="#00A0FF"/>
<stop offset="0.00657" stop-color="#00A1FF"/>
<stop offset="0.2601" stop-color="#00BEFF"/>
<stop offset="0.5122" stop-color="#00D2FF"/>
<stop offset="0.7604" stop-color="#00DFFF"/>
<stop offset="1" stop-color="#00E3FF"/>
</linearGradient>
<linearGradient id="paint1_linear" x1="71.1351" y1="41.9999" x2="20.2621" y2="41.9999" gradientUnits="userSpaceOnUse">
<stop stop-color="#FFE000"/>
<stop offset="0.4087" stop-color="#FFBD00"/>
<stop offset="0.7754" stop-color="#FFA500"/>
<stop offset="1" stop-color="#FF9C00"/>
</linearGradient>
<linearGradient id="paint2_linear" x1="52.1962" y1="46.8244" x2="18.7586" y2="103.168" gradientUnits="userSpaceOnUse">
<stop stop-color="#FF3A44"/>
<stop offset="1" stop-color="#C31162"/>
</linearGradient>
<linearGradient id="paint3_linear" x1="15.3366" y1="0.375187" x2="30.2544" y2="25.5392" gradientUnits="userSpaceOnUse">
<stop stop-color="#32A071"/>
<stop offset="0.0685" stop-color="#2DA771"/>
<stop offset="0.4762" stop-color="#15CF74"/>
<stop offset="0.8009" stop-color="#06E775"/>
<stop offset="1" stop-color="#00F076"/>
</linearGradient>
</defs>
</svg>
